<?xml version="1.0" encoding="utf-8"?>
<!-- Generator: Adobe Illustrator 21.1.0, SVG Export Plug-In . SVG Version: 6.00 Build 0)  -->
<svg version="1.1" id="Layer_1" xmlns="http://www.w3.org/2000/svg" xmlns:xlink="http://www.w3.org/1999/xlink" x="0px" y="0px"
	 viewBox="0 0 1920 346" style="enable-background:new 0 0 1920 346;" xml:space="preserve">
<style type="text/css">
	.st0{fill:#000;}
	.st1{fill:#FFF;stroke:#000;}
	.st2{fill-rule:evenodd;clip-rule:evenodd;fill:#000;}
</style>
<g>
	<path class="st0" d="M560.1,49.6l-35.9,58.2c0,0-19.2-19.1-38-24.2c-11.3-3-29.1-0.6-28.2,15.3c1.5,27.8,100.7,21.7,75,116.4
		c-7.5,27.5-36,57.2-75.1,67.7c-33.3,8.9-74.4,2.9-107-18.1l-8.9-50.7l24.9-34.3c0,0,15.4,21.4,37.9,32c15.5,7.2,39.5,8.9,44.4-3
		c8.3-20-24.6-22-54-43.1c-39.2-28.1-27.9-83.3-2.7-112.4C423.3,17.9,501,0.3,560.1,49.6z"/>
	<path class="st0" d="M745.4,49.6l-35.9,58.2c0,0-19.2-19.1-38-24.2c-11.3-3-29.1-0.6-28.2,15.3c1.5,27.8,100.7,21.7,75,116.4
		c-7.5,27.5-36,57.2-75.1,67.7c-33.3,8.9-83.1,4-123.8-29.7c0,0,9.8-11,16.3-25.7c8.9-20,8.1-36.8,8.1-36.8l8.2-10.9
		c0,0,15.4,21.4,37.9,32c15.5,7.2,39.5,8.9,44.4-3c8.3-20-24.6-22-54-43.1c-39.2-28.1-27.9-83.3-2.7-112.4
		C608.6,17.9,686.3,0.3,745.4,49.6z"/>
	<g>
		<g>
			<path class="st1" d="M347.2,97.3l-89.6,34.9l-10.7-79.5l-43.7,99.8l-88.8,34.2l60.4,28.5l-48.2,103l86.4-85l60.6,28.6l-9.3-80.5
				L347.2,97.3z"/>
		</g>
		<g>
			<g>
				<polygon class="st0" points="315.4,109.6 257.5,132.2 246.8,52.7 203.1,152.5 114.3,186.7 174.7,215.2 142,285.1 55,285 
					194.4,22.4 300,22.4 				"/>
			</g>
			<g>
				<polygon class="st0" points="345.9,285.1 276.2,285.1 264.2,181.3 318.1,126.7 				"/>
			</g>
			<g>
				<polygon class="st0" points="242.3,167.3 234.4,175.8 236.6,194.4 223.4,187.8 205.6,207 215.2,183.7 214,183 202,176.9 
					221.1,169.2 230.7,145.8 232.8,163.4 232.9,164.4 234.1,163.9 252.1,156.6 				"/>
			</g>
		</g>
	</g>
	<g>
		<path class="st0" d="M714.9,284.3l64.6-261.9h172.1l-17.3,71h-81.8l-6.4,25.2h77L906.8,185H830l-6.9,28.3h89.1l-17.5,71H714.9z"/>
	</g>
	<g>
		<path class="st0" d="M902.4,284.3l93.4-261.9h91.4l2.5,84.8c0.2,9.1,0.1,18.4-0.1,27.9c-0.3,9.5-0.8,19.4-1.5,29.7l70.1-142.4
			h91.5l-30.1,261.9h-83.7l20.7-139.9c-2.6,6.6-5.5,13.4-8.7,20.4c-3.2,7-6.7,14.3-10.5,21.6l-50.4,97.9h-51.6l-4.6-136
			c-1.3,6.8-2.9,13.7-4.9,20.8c-2,7-4.3,14.3-6.8,21.8l-31.7,93.4H902.4z"/>
	</g>
	<g>
		<path class="st0" d="M1227.9,284.3l64.6-261.9h86.4c34.7,0,60.7,6.1,77.9,18.2c17.2,12.1,24.9,29.8,23.3,53.2
			c-1.1,16.2-6.6,29.1-16.5,38.7c-9.9,9.6-23.6,15.4-41.2,17.3c14.9,2.4,26.4,8.4,34.3,17.9c8,9.5,11.5,21.4,10.5,35.6
			c-1.8,25-12.8,44.8-33.2,59.3c-20.4,14.5-47.5,21.7-81.3,21.7H1227.9z M1329.9,220.6h6.3c15.2,0,25.9-1.7,32.2-5
			c6.2-3.3,9.6-9,10.2-17c0.4-6.2-1.3-10.8-5.3-13.7c-4-2.9-10.5-4.4-19.5-4.4h-14.1L1329.9,220.6z M1354.9,119.4h4.5
			c11.7,0,20.3-1.4,25.9-4.3c5.6-2.9,8.7-7.4,9.1-13.6c0.3-4.8-1.2-8.5-4.6-11.3c-3.4-2.7-8.3-4.1-14.7-4.1h-11.8L1354.9,119.4z"/>
	</g>
	<g>
		<path class="st0" d="M1455,284.3l64.6-261.9h92.8l-44.9,181.2h77.1l-20,80.7H1455z"/>
	</g>
	<g>
		<path class="st0" d="M1643.2,284.3l27-108.8l-51-153.1h98.9l8.6,34.4c1.8,7.4,3.1,14,4.1,19.9c1,5.9,1.6,11.6,2.1,17.1
			c3-8.7,9-19.6,17.9-32.7c0.8-1.1,1.3-1.8,1.7-2.3l24.7-36.3h108.9L1761.7,177l-26.5,107.3H1643.2z"/>
	</g>
</g>
<polygon class="st2" points="128.6,302.4 45.8,302.4 34.1,324.8 119.5,324.8 "/>
<polygon class="st2" points="148.3,302.4 127.6,324.8 1737.7,324.8 1749.5,302.4 "/>
</svg>
